# xmcd
# 
# Track frame offsets:
#     150
#     9837
#     20757
#     32442
#     49922
#     64497
#     81197
#     101847
#     113955
#     128635
#     141777
#     149870
#     161297
#     175327
# 
# Disc length: 2537
# 
# Revision: 41
# Processed by: cddbd v1.5.2PL0 Copyright (c) Steve Scherf et al.
# Submitted via: fre:ac v1.0.31
# 
DISCID=c309e70e
DTITLE=Johnny Cash - American Recordings III Solitary Man
DYEAR=2000
DGENRE=Country
TTITLE0=I Won't Back Down
TTITLE1=Solitary Man
TTITLE2=That Lucky Old Sun (Just Rolls Around Heaven All Day)
TTITLE3=One
TTITLE4=Nobody
TTITLE5=I See A Darkness
TTITLE6=The Mercy Seat
TTITLE7=Would You Lay With Me (In A Field Of Stone)
TTITLE8=Field Of Diamonds
TTITLE9=Before My Time
TTITLE10=Country Trash
TTITLE11=Mary Of The Wild Moor
TTITLE12=I'm Leavin' Now
TTITLE13=Wayfaring Stranger
EXTD=CD 2000\nAmerican Recordings (Universal) - 6 02537 35112 1 YEAR: 2000
EXTT0=Written by Tom Petty and Jeff Lynne
EXTT1=Written by Neil Diamond
EXTT2=Written by Haven Gillespie and Beasley Smith
EXTT3=Written by Adam Clayton, David Evans, Paul Hewson, Lawrence Mull
EXTT4=en
EXTT5=Written by Egbert Williams
EXTT6=Written by Will Oldham
EXTT7=Written by Nick Cave and Mick Harvey
EXTT8=Written by David Allan Coe
EXTT9=Written by John R. Cash and Jack W. Routh
EXTT10=Written by John R. Cash
EXTT11=Written by John R. Cash
EXTT12=Written by Dennis Turner
EXTT13=Written by John R. Cash
PLAYORDER=
